<svg xmlns="http://www.w3.org/2000/svg" id="Layer_1" enable-background="new 0 0 128 128" viewBox="0 0 128 128"><path fill="#bde5ec" d="M51,91c-9,11-16,19-17,37c9,0,65,0,65,0c-1.9-6.7-9.9-15.4-18-26L56,87L51,91z"/><path fill="#892e1d" d="M98.6,24.6c3.7,10-2.4,17.4-3.6,19.5S67.5,64.6,67.1,75.7c-0.4,11.1,2,11.9,2,11.9s-7,1.8-11.9,6.5  c-16.4,15.8-29,4.3-34.2-5c9-16-7.7-50.5,14.2-72.4C55.6-1.8,89.9,0.6,98.6,24.6z"/><path fill="#ffc298" d="M79.5,76.4c0,0-0.9,21.6,1.5,25.6c-16,5-23.8-8-23.8-8s5.8-5-0.9-38.4C77.1,65.2,79.5,76.4,79.5,76.4z"/><path fill="#e1927a" d="M79.3,85.5c0-5,0.2-9.1,0.2-9.1S61.6,63.8,62,67.6C62.7,75.2,68.7,82.1,79.3,85.5z"/><path fill="#ffc298" d="M93.8,30.1c2.4,6.4,0.5,8.7,2.1,16.8c1.1,5.9,2.7,12.3,5.1,14.3c-2.4,4-7.2,4-7.2,4S93.6,84,79.5,81.2  c-19.9-4-24.7-23.9-24.7-23.9s-6.4,5.6-8.8-0.8s3.2-16.7,9.6-8c0.8-10.4,10-14.8,15.9-18.3C87.5,20.6,91.5,23.8,93.8,30.1z"/><path fill="#ffc298" d="M93.8,30.1c2.4,6.4,0.5,8.7,2.1,16.8c1.1,5.9,2.7,12.3,5.1,14.3c-2.4,4-7.2,4-7.2,4S93.6,84,79.5,81.2  c-19.9-4-24.7-23.9-24.7-23.9s-6.4,5.6-8.8-0.8s3.2-16.7,9.6-8c0.8-10.4,10-14.8,15.9-18.3C87.5,20.6,91.5,23.8,93.8,30.1z"/><path fill="#892e1d" d="M52.4,41.3c1.7,2.3,3.2,7.2,3.2,7.2s23.1-3.2,24.7-18.3c3.2,2.4,3.2,8,3.2,8s8.8-0.8,10.4-8  c5.5-25-35.1-15.1-41.5-8S50,38.1,52.4,41.3z"/><path fill="#e1927a" d="M51.5,49.3c-0.1,0.7-0.3,1.2-0.3,1.7c-0.1,0.5-0.1,0.9-0.2,1.3c0,0.4,0,0.8,0,1.3c0,0.3,0.1,0.5,0.1,0.8   c0,0.3,0.1,0.6,0.1,1l0,0.1c0,0.3-0.3,0.6-0.6,0.6c-0.1,0-0.1,0-0.2,0c-0.4-0.1-0.7-0.3-1-0.6c-0.3-0.3-0.6-0.5-0.8-0.9   C48.2,53.8,48,53,48,52.1c0-0.9,0.4-1.7,0.9-2.4c0.5-0.6,1.2-1.1,2-1.2c0.3-0.1,0.6,0.1,0.6,0.4c0,0.1,0,0.1,0,0.2L51.5,49.3z"/><circle cx="94" cy="118" r="10" fill="#ecc6c3"/><circle cx="94" cy="118" r="5" fill="#e44450"/><circle cx="43.6" cy="107.5" r="10" fill="#ecc6c3"/><circle cx="43.6" cy="107.5" r="5" fill="#e44450"/><polygon fill="#e44450" points="103.9 113.1 110.9 108.5 110.4 110.3 108.3 108.1 107.3 107.2 108.7 105.8 113.5 100.8 116.9 105.8 110.6 108.5 111 106.2 112.3 108.9 113 110.3 111.9 110.7"/><polygon fill="#e44450" points="105.8 118.6 114.1 118.1 112.8 119.4 112.1 116.5 111.7 115.2 113.6 114.6 120.2 112.7 120.7 118.7 113.9 118 115.4 116.1 115.2 119.2 115.1 120.7 113.9 120.5"/><polygon fill="#e44450" points="31.5 111.7 24.1 115.6 24.7 113.9 26.6 116.3 27.4 117.3 26 118.5 20.7 123 17.8 117.8 24.3 115.6 23.7 117.9 22.6 115.1 22.1 113.6 23.3 113.4"/><polygon fill="#e44450" points="30.1 106.1 21.7 105.7 23.1 104.6 23.6 107.6 23.8 108.9 21.9 109.3 15.2 110.5 15.2 104.5 22 105.9 20.3 107.6 20.8 104.6 21 103 22.2 103.4"/></svg>