<svg xmlns="http://www.w3.org/2000/svg" id="Layer_1" enable-background="new 0 0 128 128" viewBox="0 0 128 128"><path fill="#bde5ec" d="M47.2,88.2C36.1,97.1,27.7,110.6,23,128c10,0,62,0,62,0c-3-8-7-13-10.7-22.9L52.9,85.3L47.2,88.2z"/><path fill="#892e1d" d="M107.4,32.9c1.5,10.5-5.9,16.5-7.5,18.3C98.3,53,68.8,65.8,66.1,76.5s-0.5,12-0.5,12s-7.2,0.3-13,3.9  c-19.3,12.1-29.3-1.7-32.5-11.9C33,63,23,29.6,48.9,12.6C70.6-1.6,103.7,7.7,107.4,32.9z"/><path fill="#ffc298" d="M78.1,79.7c0,0-5.3,21-3.8,25.4C57.6,106.7,53,95,52.7,92.4C57,88,59,78,59.7,54.7C78,68.3,78.1,79.7,78.1,79.7  z"/><path fill="#e1927a" d="M62.7,67.6C61.9,75,66.1,86,75.4,91.6c1.2-6.1,2.6-11.9,2.6-11.9S63.1,63.8,62.7,67.6z"/><path fill="#ffc298" d="M101.6,37.4c1,6.7-1.2,8.6-1.4,16.9c-0.1,6,0.2,12.6,2.1,15c-3.2,3.4-7.8,2.4-7.8,2.4s-0.5,2.5-1.9,5.3  C90,77,83,72,83,72s1,7,6.5,9.8c-2.7,3.1-6.8,6.6-12.5,4.2c-18.7-8-19.2-30.1-19.2-30.1s-7.4,4.2-8.4-2.6s6.5-15.7,11-5.8  c2.9-10,12.8-12.4,19.4-14.7C97.3,26.7,100.5,30.7,101.6,37.4z"/><path fill="#892e1d" d="M58.7,39.9c1.2,2.6,1.7,7.7,1.7,7.7s23.3,1.6,27.9-12.9c2.6,3,1.5,8.5,1.5,8.5s8.7,1,11.8-5.7  c10.5-23.3-31.2-22-38.9-16.3S57,36.2,58.7,39.9z"/><path fill="#e1927a" d="M56.2,47.5c-0.2,0.6-0.5,1.1-0.7,1.6c-0.2,0.5-0.3,0.8-0.4,1.2c-0.1,0.4-0.2,0.8-0.2,1.3   c-0.1,0.2,0,0.5-0.1,0.8c0,0.3,0,0.6-0.1,1l0,0.1c-0.1,0.3-0.4,0.5-0.7,0.4c-0.1,0-0.1,0-0.2-0.1c-0.3-0.2-0.6-0.5-0.9-0.8   c-0.2-0.3-0.5-0.6-0.6-1c-0.3-0.7-0.4-1.6-0.1-2.5c0.2-0.9,0.7-1.6,1.3-2.1c0.6-0.5,1.4-0.8,2.3-0.8c0.3,0,0.5,0.3,0.5,0.6   c0,0.1,0,0.1,0,0.2L56.2,47.5z"/><path fill="#bde5ec" d="M95.1 81.7c1.7 1.1 3.4 2.1 5.2 3l-1.3 2c-1.6-1.3-3-2.7-4.5-4.2L95.1 81.7zM103.4 86.1c1.8.8 3.6 1.4 5.4 1.8l-1.5 4.4c-2-.9-3.8-2.1-5.5-3.3L103.4 86.1z"/><polygon fill="#bde5ec" points="95.6 79.4 101.5 79.1 101.4 81.6 95.5 80.4"/><path fill="#bde5ec" d="M103.3,78.9c1.9-0.2,3.9-0.5,5.6-1.1l0.7,4.6c-2.3,0.1-4.3-0.2-6.4-0.5L103.3,78.9z"/><g><polygon fill="#bde5ec" points="94.2 84.5 98.1 89.3 95.8 90.6 93.4 85.1"/><path fill="#bde5ec" d="M99.2,90.7c1.2,1.7,2.4,3.4,3.4,5.4l-4.4,1.5c-0.3-1.7-1-3.6-1.7-5.4L99.2,90.7z"/></g></svg>