<svg xmlns="http://www.w3.org/2000/svg" id="Layer_1" enable-background="new 0 0 128 128" viewBox="0 0 128 128"><rect width="124" height="12" x="1" y="101" fill="#fff"/><rect width="126" height="12" x="1" y="101" fill="#2652e4"/><circle cx="100" cy="116" r="11" fill="#bde5ec"/><circle cx="100" cy="116" r="4" fill="#fff"/><circle cx="27" cy="116" r="11" fill="#bde5ec"/><circle cx="27" cy="116" r="4" fill="#fff"/><path fill="#bde5ec" d="M87.9,39h-76C7.5,39,4,42.5,4,46.8V101h120V79.4c0-1.8-0.8-3.5-2-4.9l-28.3-33C92.3,39.7,90.1,39,87.9,39z"/><rect width="60" height="6" x="9" y="50" fill="#fff"/><rect width="105" height="6" x="9" y="88" fill="#fff"/><path fill="none" stroke="#fff" stroke-linecap="round" stroke-miterlimit="10" stroke-width="2" d="M115,73H92.2c-5.1,0-9.2-4.1-9.2-9.2V51h11"/><line x1="29" x2="53" y1="72" y2="72" fill="none" stroke="#e44450" stroke-miterlimit="10" stroke-width="8"/><line x1="41" x2="41" y1="84" y2="60" fill="none" stroke="#e44450" stroke-miterlimit="10" stroke-width="8"/><path fill="#e44450" d="M58.7,34.4c0-5,3.8-9.1,8.5-9.1s8.5,4.1,8.5,9.1"/><rect width="20" height="5" x="57" y="34" fill="#ecc6c3"/><polygon fill="#ecc6c3" points="66.4 18.2 65.4 12.5 65.1 10.5 69.7 10.5 69.4 12.5 68.4 18.2 68.2 19.2 66.6 19.2"/><polygon fill="#ecc6c3" points="75.3 19.9 78.8 15.1 79.9 13.5 83.1 16.7 81.5 17.9 76.8 21.3 75.9 21.9 74.8 20.7"/><polygon fill="#ecc6c3" points="79.7 26.2 84.6 25.3 86.5 24.9 86.5 29.4 84.6 29.1 79.7 28.2 78.7 28 78.7 26.4"/><polygon fill="#ecc6c3" points="49.4 25.3 55.1 26.2 56.1 26.3 56.1 28 55.1 28.2 49.4 29.1 47.5 29.4 47.5 25"/><polygon fill="#ecc6c3" points="59.2 21.3 54.4 17.9 52.8 16.8 56.1 13.4 57.3 15.1 60.6 19.9 61.2 20.7 60.1 21.9"/><rect width="4" height="52" x="74" y="50" fill="#2652e4"/><rect width="128" height="128" fill="none"/><polyline fill="#e44450" points="124 82 119 82 119 96 124 96"/></svg>