<svg xmlns="http://www.w3.org/2000/svg" id="Layer_1" enable-background="new 0 0 128 128" viewBox="0 0 128 128"><path fill="#bde5ec" d="M85,119h37c2.2,0,4-1.8,4-4V44.9L116,30H91L81,44.9V115C81,117.2,82.8,119,85,119z"/><path fill="#ffc298" d="M71.3,88.9l-0.7,0.3l-0.6,0.2c-0.4,0.1-0.8,0.3-1.2,0.4c-0.8,0.2-1.6,0.4-2.4,0.6       c-1.6,0.4-3.2,0.7-4.8,0.9c-3.2,0.4-6.5,0.6-9.7,0.6c-1.6-0.1-3.2-0.1-4.8-0.3l-2.4-0.2L42,91c-1.6-0.2-3.2-0.6-4.8-0.9       c-1.6-0.3-3.1-0.8-4.7-1.2c-3.2-0.8-5.2-4.1-4.4-7.4s4.1-5.2,7.4-4.4c0.2,0,0.3,0.1,0.5,0.1l0.4,0.1c1.3,0.4,2.6,0.9,3.9,1.3       c1.3,0.4,2.6,0.8,4,1.1l2,0.5l2,0.4c1.3,0.3,2.7,0.4,4.1,0.6c2.7,0.3,5.5,0.3,8.2,0.2c1.4-0.1,2.7-0.2,4-0.4       c0.7-0.1,1.3-0.2,1.9-0.3c0.3-0.1,0.6-0.1,0.9-0.2l0.8-0.2l0.5-0.1c2.4-0.6,4.8,0.9,5.4,3.3C74.6,85.8,73.4,88.1,71.3,88.9z"/><path fill="#ffc298" d="M66.4,100.6l-1.3,0.1l-1.2,0.1c-0.8,0-1.5,0.1-2.3,0.1c-1.5,0.1-3,0.1-4.5,0c-3,0-6-0.2-9-0.4       c-3-0.2-5.9-0.5-8.9-0.9c-2.9-0.4-5.9-0.8-8.8-1.3c-3.3-0.5-5.5-3.6-5-6.9s3.6-5.5,6.9-5c0.2,0,0.3,0.1,0.5,0.1l0.1,0       c2.7,0.7,5.4,1.3,8.2,1.9c2.7,0.6,5.5,1.1,8.2,1.5c2.8,0.4,5.5,0.8,8.3,1.1c1.4,0.1,2.7,0.2,4.1,0.3c0.7,0,1.4,0.1,2,0.1l1,0       l0.9,0l0.4,0c2.5,0,4.5,2,4.5,4.5C70.4,98.5,68.6,100.4,66.4,100.6z"/><path fill="#ffc298" d="M54.6 110.7c-2.5-1.1-5.2-2.3-7.8-3.4-2.6-1.1-5.3-2.2-7.9-3.2-5.3-2.1-10.7-4.2-16-6.1-2.3-.9-3.5-3.5-2.7-5.8.9-2.3 3.5-3.5 5.8-2.7.1 0 .2.1.3.1 5.3 2.4 10.5 4.8 15.8 7.3 2.6 1.2 5.2 2.5 7.8 3.8 2.6 1.3 5.2 2.6 7.8 4 1.6.9 2.2 2.9 1.4 4.6C58.2 110.9 56.3 111.5 54.6 110.7L54.6 110.7zM73.5 83.6l-.8.2-.7.1c-.4.1-.8.2-1.3.2-.8.1-1.7.2-2.5.3-1.6.2-3.3.3-4.9.3-3.3 0-6.5-.2-9.7-.6-1.6-.3-3.2-.5-4.8-.9l-2.4-.5-2.3-.6c-1.6-.4-3.1-1-4.6-1.5-1.5-.5-3-1.2-4.5-1.8-3.1-1.2-4.7-4.7-3.4-7.8 1.2-3.1 4.7-4.7 7.8-3.4.1.1.3.1.4.2l.4.2c1.2.6 2.4 1.2 3.7 1.8 1.3.5 2.5 1.1 3.8 1.6l1.9.7 2 .6c1.3.4 2.6.7 4 1.1 2.7.6 5.4 1 8.1 1.2 1.4.1 2.7.1 4 .1.7 0 1.3 0 2-.1.3 0 .6 0 1-.1l.8-.1.5-.1c2.5-.3 4.7 1.5 5 4C77.2 81 75.7 83.1 73.5 83.6z"/><path fill="#ffc298" d="M50.7,52.9l-9.4,5l-4.7,2.5l-0.6,0.3c-0.1,0.1-0.2,0.1-0.3,0.2c-0.1,0.1-0.2,0.1-0.2,0.1       c0,0.1,0.1,0.2,0.1,0.3c0.1,0.1,0.1,0.2,0.2,0.2c0.1,0,0,0.1-0.1,0.2L35.6,62l-0.3,0.5c-1.7,2.9-3.6,6-5.4,9l-2.7,4.6l-1.3,2.3       l-0.6,1.1L25,80.2l-0.1,0.3c-0.1,0.1,0.1-0.1,0.1-0.1l0.2-0.2c-4.3,5.4-12.1,6.3-17.5,2c-5.4-4.3-6.3-12.1-2-17.5L6,64.2       c0.1-0.1,0.3-0.3,0.3-0.3l0.3-0.2l0.6-0.4l1.1-0.8l2.2-1.6l4.5-3.1c3-2.1,6-4.1,9.2-6.2l0.6-0.4l0.3-0.2       c0.1-0.1,0.2-0.1,0.4-0.3c0.7-0.5,1.5-1,2.3-1.4c0.8-0.4,1.6-0.7,2.5-0.9c0.3-0.1,0.3-0.1,0.4-0.1c0.1,0,0.2,0,0.3-0.1l0.6-0.1       l5.1-1.2l10.3-2.4l0.2-0.1c2.5-0.6,4.9,1,5.5,3.4C53.4,49.9,52.4,52,50.7,52.9z"/><path fill="#ffc298" d="M39.2,59c-3.1,2.4-3.9,6.7,3.7,10.3c7.6,3.6-11.2,31.2-20.3,28.4S-4.9,90,1.6,71.2      C7.9,53.1,39.2,59,39.2,59z"/><path fill="none" stroke="#e1927a" stroke-linecap="round" stroke-miterlimit="10" stroke-width="2.257" d="M46.5 82.3c0 0 2.4 1.5 6.2 1.7M73.7 83.6c0 0-7.8 1.8-16 .7M44.6 91.5c.2 0 13.5 1.4 19.9-.7M39.7 98.4c.4.1 7.9 2.5 13.6 2.5"/><polyline fill="none" stroke="#bde5ec" stroke-miterlimit="10" stroke-width="6" points="107 16 74 16 63 27"/><rect width="36" height="42" x="81" y="60" fill="#fff"/><rect width="20" height="7" x="94" y="23" fill="#2652e4"/><rect width="12" height="15" x="98" y="8" fill="#2652e4"/><line x1="81" x2="109" y1="81" y2="81" fill="none" stroke="#e44450" stroke-miterlimit="10" stroke-width="8"/><line x1="95" x2="95" y1="95" y2="67" fill="none" stroke="#e44450" stroke-miterlimit="10" stroke-width="8"/><path fill="#2652e4" d="M67.1,53.8L67.1,53.8c-2.3,2.3-6.1,2.3-8.5,0l0,0c-1.9-1.9-2.3-4.8-1-7.1l5.3-9.7l5.3,9.7    C69.4,49.1,69,52,67.1,53.8z"/><line x1="85" x2="117" y1="45" y2="45" fill="none" stroke="#fff" stroke-linecap="round" stroke-miterlimit="10" stroke-width="2"/><rect width="128" height="128" fill="none"/></svg>