<svg xmlns="http://www.w3.org/2000/svg" id="Layer_1" enable-background="new 0 0 128 128" viewBox="0 0 128 128"><rect width="112" height="10" x="8" y="118" fill="#2652e4"/><polygon fill="#2652e4" points="106 118.1 22 118.1 22.1 107.1 106.1 107.1"/><rect width="104" height="9" x="12" y="41" fill="#2652e4"/><polygon fill="#fff" points="99 114 45 116 45 118 99 118"/><polygon fill="#bde5ec" points="127.9 41 .1 41 64 5"/><polygon fill="#bde5ec" points="111.4 118 95.6 118 97.8 50 109.2 50"/><polygon fill="#bde5ec" points="32.4 118 16.6 118 18.8 50 30.2 50"/><circle cx="64" cy="26" r="7" fill="#fff"/><circle cx="64" cy="79" r="24" fill="#ecc6c3"/><line x1="52" x2="76" y1="79" y2="79" fill="none" stroke="#e44450" stroke-miterlimit="10" stroke-width="8"/><line x1="64" x2="64" y1="91" y2="67" fill="none" stroke="#e44450" stroke-miterlimit="10" stroke-width="8"/><rect width="128" height="128" fill="none"/></svg>