<svg xmlns="http://www.w3.org/2000/svg" id="Layer_1" enable-background="new 0 0 128 128" viewBox="0 0 128 128"><path fill="#bde5ec" d="M59.3,128c-2-3.7-4-7.6-6-12.9L31.9,95.3l-5.7,2.9c-8.8,7.1-16,17.2-20.9,29.8H59.3z"/><path fill="#892e1d" d="M86.4,42.9c1.5,10.5-5.9,16.5-7.5,18.3C77.3,63,47.8,75.8,45.1,86.5c-2.7,10.7-0.5,12-0.5,12s-7.4,0-13,3.9  c-13.8,9.8-23.5,2.8-29-7.1C10.2,81.7,2,39.6,27.9,22.6C49.6,8.4,82.7,17.7,86.4,42.9z"/><path fill="#ffc298" d="M57.1,89.7c0,0-5.3,21-3.8,25.4C36.6,116.7,32,105,31.7,102.4C36,98,38,88,38.7,64.7  C57,78.3,57.1,89.7,57.1,89.7z"/><path fill="#e1927a" d="M41.7,77.6C40.9,85,45.1,96,54.4,101.6c1.2-6.1,2.6-11.9,2.6-11.9S42.1,73.8,41.7,77.6z"/><path fill="#ffc298" d="M80.6,47.4c1,6.7-1.2,8.6-1.4,16.9c-0.1,6-0.9,13.5,1,15.9c-2.1,2.9-6.8,1.5-6.8,1.5s-2.2,7.6-4.4,10.4  c-2.7,3.1-7.3,6.3-13,3.9c-18.7-8-19.2-30.1-19.2-30.1s-7.4,4.2-8.4-2.6s6.5-15.7,11-5.8c2.9-10,12.8-12.4,19.4-14.7  C76.3,36.7,79.5,40.7,80.6,47.4z"/><path fill="#892e1d" d="M37.7,49.9c1.2,2.6,1.7,7.7,1.7,7.7s23.3,1.6,27.9-12.9c2.6,3,1.5,8.5,1.5,8.5s10.4,3,13.5-3.7  c10.5-23.3-32.9-24-40.6-18.3S36,46.2,37.7,49.9z"/><path fill="#e1927a" d="M35.2,57.5c-0.2,0.6-0.5,1.1-0.7,1.6c-0.2,0.5-0.3,0.8-0.4,1.2c-0.1,0.4-0.2,0.8-0.2,1.3   c-0.1,0.2,0,0.5-0.1,0.8c0,0.3,0,0.6-0.1,1l0,0.1c-0.1,0.3-0.4,0.5-0.7,0.4c-0.1,0-0.1,0-0.2-0.1c-0.3-0.2-0.6-0.5-0.9-0.8   c-0.2-0.3-0.5-0.6-0.6-1c-0.3-0.7-0.4-1.6-0.1-2.5c0.2-0.9,0.7-1.6,1.3-2.1c0.6-0.5,1.4-0.8,2.3-0.8c0.3,0,0.5,0.3,0.5,0.6   c0,0.1,0,0.1,0,0.2L35.2,57.5z"/><polyline fill="none" stroke="#bde5ec" stroke-miterlimit="10" stroke-width="4" points="83.6 8.1 92.1 9.1 83.5 18.8 91 20.3"/><polyline fill="none" stroke="#bde5ec" stroke-miterlimit="10" stroke-width="4" points="97.9 3.4 108.5 4.6 97.8 16.8 107.2 18.6"/><path fill="#bde5ec" d="M121,117H88c-1.1,0-2-0.9-2-2V97c0-1.1,0.9-2,2-2h33c1.1,0,2,0.9,2,2v18C123,116.1,122.1,117,121,117z"/><rect width="14" height="29" x="97.5" y="91.5" fill="#f7f7eb" transform="rotate(90 104.5 106)"/><rect width="14" height="6" x="86" y="103" fill="#e44450" transform="rotate(90 93.013 106)"/><path fill="#bde5ec" d="M84,113h2V99h-2c-1.1,0-2,0.9-2,2v10C82,112.1,82.9,113,84,113z"/><g><polygon fill="#bde5ec" points="107.5 100.5 106.3 106.7 105 104.5 106.8 104.5 109.9 104.5 108.2 106.7 104.5 111.2 105.5 105.4 106.8 107.5 105 107.5 101.9 107.5 103.6 105.4"/></g></svg>