<svg xmlns="http://www.w3.org/2000/svg" id="Layer_1" enable-background="new 0 0 128 128" viewBox="0 0 128 128"><path fill="#bde5ec" d="M38.2,99.9c-2.4,0.7-7.5,1.9-11.6,3c-3.9,1-6.9,3.9-8.1,7.7L13.2,128h68l-4.7-17.4c-1-3.8-4-6.8-7.8-7.9    l-10.9-3.2L38.2,99.9z"/><path fill="#bde5ec" d="M39.6 89.4l-1.4 10.5c0 0 12.1 12.2 19.7-.4-3.7-10.1-.7-16.3-.7-16.3l-.5-6L46 78.5 39.6 89.4zM50.7 76.4c0 0 5 1.8 5-2.5-.1-4.3-5.8-9.1-7.5-2.4M28.2 64.4c-3.5-1.9-4.8-6.2-2.9-9.7 1.9-3.5 6.2-4.8 9.7-2.9"/><path fill="#bde5ec" d="M31.9 55c-1.7-1.8-1.6-4.5.1-6.2 1.8-1.7 4.5-1.6 6.2.1M80 106.2c0 0-1.2-32.5-1.9-40.5S45 65.8 45 65.8l-6.8 38.8"/><path fill="#bde5ec" d="M61,53.3c-9.9-12.4-25.5-7.1-31.6,3.3c-3,5.1-2.8,15.9-0.9,23.9c1.4,0,5.3,0.1,8.3-0.5c0,2.6-4.3,4.9-6.6,6    c0.6,1.6,1.4,2.8,2.1,3.6c4.6,4.8,11.1,3.1,13.4,1.7c3.4-2,10.1-4.3,13.5-9.9C65.5,71.2,66.5,60.2,61,53.3z"/><path fill="#2652e4" d="M74.1,98.7c-2.5,0.7-7.8,2-12.1,3.1c-4,1-7.2,4-8.4,8L48.1,128h71l-4.9-18.2c-1.1-4-4.1-7.1-8.1-8.2    l-11.4-3.3L74.1,98.7z"/><path fill="#2652e4" d="M75.6 87.7l-1.4 11c0 0 12.7 12.7 20.5-.4-3.9-10.6-.7-17-.7-17L93.4 75l-11.2 1.3L75.6 87.7zM87.1 74.2c0 0 5.3 1.9 5.2-2.6-.1-4.5-6-9.5-7.8-2.5M70.1 54.1c0 3.5-2.8 6.3-6.3 6.3-3.5 0-6.3-2.8-6.3-6.3"/><path fill="#2652e4" d="M71.8 56.3c-2.5 2.5-6.4 2.5-8.9 0-2.5-2.5-2.5-6.4 0-8.9M101.7 82.9c-2.5 2.5-6.4 2.5-8.9 0s-2.5-6.4 0-8.9"/><path fill="#2652e4" d="M98,50c-10.4-12.9-26.6-7.4-33,3.4c-3.3,5.6-2.8,17.7-0.6,26.3c1.4-0.1,5.4-0.6,8.4-1.5    c-0.3,3.5-4.4,5.7-7,5.7c0.5,1.1,1.7,3.4,2.3,4c4.8,5,11.6,3.2,14,1.8c3.5-2.1,10.6-4.5,14.1-10.3C102.6,68.7,103.7,57.2,98,50z"/><path fill="none" stroke="#bde5ec" stroke-linecap="square" stroke-miterlimit="10" stroke-width="3" d="M22.7 89.5c-3.1-2.3-3.8-6.6-1.6-9.8M19.1 94.5c-5.9-4.2-7.2-12.4-2.9-18.3"/><path fill="none" stroke="#fff" stroke-linecap="square" stroke-miterlimit="10" stroke-width="3" d="M57.1 88.9c-3.1-2.3-3.8-6.6-1.6-9.8M53.6 93.8c-5.9-4.2-7.2-12.4-2.9-18.3"/><circle cx="64" cy="20" r="15" fill="#ecc6c3"/><circle cx="64" cy="20" r="15" fill="none" stroke="#e44450" stroke-miterlimit="10" stroke-width="6"/><line x1="54.4" x2="73.6" y1="29.6" y2="10.4" fill="none" stroke="#e44450" stroke-miterlimit="10" stroke-width="6"/><rect width="128" height="128" fill="none"/></svg>