<svg xmlns="http://www.w3.org/2000/svg" id="Layer_1" enable-background="new 0 0 128 128" viewBox="0 0 128 128"><path fill="#bde5ec" d="M65.6,48.9h-17l-8.9-3v-4.8l9.2-3h16.7c3,0,5.4,2.4,5.4,5.4v0C71,46.5,68.6,48.9,65.6,48.9z"/><path fill="#2652e4" d="M28.3 63l-17 0L.5 47.8l5.9 0c1.8 0 3.5.6 4.9 1.7L28.3 63zM41 20.5l-7.4 0 20 46.5 24.7 0-26-40.4C49.8 22.8 45.6 20.5 41 20.5z"/><path fill="#bde5ec" d="M65.6 103.9h-17l-8.9-3v-4.8l9.2-3h16.7c3 0 5.4 2.4 5.4 5.4v0C71 101.5 68.6 103.9 65.6 103.9zM118.4 80.4H31c-4.6 0-8.9-2.2-11.6-6L9.6 60.5h90.1c7 0 13.7 3.3 18 8.9l3.7 4.9C123.4 76.8 121.6 80.4 118.4 80.4z"/><path fill="none" stroke="#fff" stroke-linecap="round" stroke-miterlimit="10" stroke-width="2" d="M93.1,63.8c2.6,3.8,7,6,11.6,6h11.4"/><path fill="#2652e4" d="M40,123h-7.4l20-46.5h24.7l-26,40.4C48.8,120.7,44.6,123,40,123z"/><path fill="#e44450" d="M98.3,11.7L78.8,45.4c-1.4,2.5,0.4,5.6,3.2,5.6H121c2.9,0,4.7-3.1,3.2-5.6l-19.5-33.7   C103.3,9.2,99.8,9.2,98.3,11.7z"/><polygon fill="#fff" points="105 21.5 103 36.4 100.1 36.4 98 21.5"/><circle cx="101.5" cy="42.7" r="2.5" fill="#fff"/><circle cx="76.5" cy="66.5" r="2.5" fill="#fff"/><circle cx="65.5" cy="66.5" r="2.5" fill="#fff"/><circle cx="55.5" cy="66.5" r="2.5" fill="#fff"/><circle cx="45.5" cy="66.5" r="2.5" fill="#fff"/></svg>