<svg xmlns="http://www.w3.org/2000/svg" id="Layer_1" enable-background="new 0 0 128 128" viewBox="0 0 128 128"><path fill="#bde5ec" d="M108,115H18V61c0-24.9,20.1-45,45-45h0c24.9,0,45,20.1,45,45V115z"/><path fill="#fff" d="M99,119H27V62c0-19.9,16.1-36,36-36H63c19.9,0,36,16.1,36,36V119z"/><circle cx="63" cy="76.6" r="20.3" fill="#ecc6c3"/><path fill="#e44450" d="M66.9 51.9c1.4.2 1.9.4 2 .6 0 .2-.2.4-.8.6l-.8.3c-.2.1-.6.2-.7.3-.4.2-.4.4-.5.6-.4.8-.7 1.6-1 2.4-.3.8-.5 1.6-.6 2.4-.1.8-.2 1.6 0 2.4.1.7-.3 1.4-1.1 1.5s-1.4-.3-1.5-1.1c0-.2 0-.3 0-.5.1-.8.1-1.6 0-2.4-.1-.8-.3-1.6-.6-2.4-.3-.8-.6-1.6-1-2.4-.1-.2-.1-.4-.5-.6-.1-.1-.5-.2-.7-.3l-.8-.3c-.6-.2-.8-.4-.8-.6.1-.2.6-.4 2-.6C62 51.5 64.5 51.6 66.9 51.9zM88 80.7c-.2 1.4-.4 1.9-.6 2-.2 0-.4-.2-.6-.8l-.3-.8c-.1-.2-.2-.6-.3-.7-.2-.4-.4-.4-.6-.5-.8-.4-1.6-.7-2.4-1-.8-.3-1.6-.5-2.4-.6-.8-.1-1.6-.2-2.4 0-.7.1-1.4-.3-1.5-1.1-.1-.7.3-1.4 1.1-1.5.2 0 .3 0 .5 0 .8.1 1.6.1 2.4 0 .8-.1 1.6-.3 2.4-.6.8-.3 1.6-.6 2.4-1 .2-.1.4-.1.6-.5.1-.1.2-.5.3-.7l.3-.8c.2-.6.4-.8.6-.8.2.1.4.6.6 2C88.3 75.9 88.3 78.4 88 80.7zM59.1 101.8c-1.4-.2-1.9-.4-2-.6 0-.2.2-.4.8-.6l.8-.3c.2-.1.6-.2.7-.3.4-.2.4-.4.5-.6.4-.8.7-1.6 1-2.4.3-.8.5-1.6.6-2.4.1-.8.2-1.6 0-2.4-.1-.7.3-1.4 1.1-1.5.7-.1 1.4.3 1.5 1.1 0 .2 0 .3 0 .5-.1.8-.1 1.6 0 2.4.1.8.3 1.6.6 2.4.3.8.6 1.6 1 2.4.1.2.1.4.5.6.1.1.5.2.7.3l.8.3c.6.2.8.4.8.6-.1.2-.6.4-2 .6C64 102.1 61.5 102.1 59.1 101.8zM38 73c.2-1.4.4-1.9.6-2 .2 0 .4.2.6.8l.3.8c.1.2.2.6.3.7.2.4.4.4.6.5.8.4 1.6.7 2.4 1 .8.3 1.6.5 2.4.6.8.1 1.6.2 2.4 0 .7-.1 1.4.3 1.5 1.1.1.7-.3 1.4-1.1 1.5-.2 0-.3 0-.5 0-.8-.1-1.6-.1-2.4 0-.8.1-1.6.3-2.4.6-.8.3-1.6.6-2.4 1-.2.1-.4.1-.6.5-.1.1-.2.5-.3.7l-.3.8c-.2.6-.4.8-.6.8-.2-.1-.4-.6-.6-2C37.7 77.8 37.7 75.3 38 73zM83.4 61.9c.9 1.1 1.1 1.7 1 1.9-.1.2-.4.1-1-.1l-.8-.3c-.2-.1-.6-.3-.7-.3-.4-.1-.6 0-.8.1-.9.3-1.6.7-2.4 1.1-.8.4-1.5.8-2.1 1.3-.7.5-1.3 1-1.7 1.7-.4.6-1.2.8-1.8.3s-.8-1.2-.3-1.8c.1-.1.2-.2.3-.3.7-.5 1.2-1.1 1.7-1.7.5-.7.9-1.4 1.3-2.1.4-.8.7-1.6 1.1-2.4.1-.2.2-.4.1-.8 0-.2-.2-.5-.3-.7l-.3-.8c-.3-.6-.3-.9-.1-1 .2-.1.7.1 1.9 1C80.2 58.3 82 60.1 83.4 61.9zM77.9 97.2c-1.1.9-1.7 1.1-1.9 1-.2-.1-.1-.4.1-1l.3-.8c.1-.2.3-.6.3-.7.1-.4 0-.6-.1-.8-.3-.9-.7-1.6-1.1-2.4-.4-.8-.8-1.5-1.3-2.1-.5-.7-1-1.3-1.7-1.7-.6-.4-.8-1.2-.3-1.8s1.2-.8 1.8-.3c.1.1.2.2.3.3.5.7 1.1 1.2 1.7 1.7.7.5 1.4.9 2.1 1.3.8.4 1.6.7 2.4 1.1.2.1.4.2.8.1.2 0 .5-.2.7-.3l.8-.3c.6-.3.9-.3 1-.1.1.2-.1.7-1 1.9C81.6 94 79.8 95.8 77.9 97.2zM42.6 91.8c-.9-1.1-1.1-1.7-1-1.9.1-.2.4-.1 1 .1l.8.3c.2.1.6.3.7.3.4.1.6 0 .8-.1.9-.3 1.6-.7 2.4-1.1.8-.4 1.5-.8 2.1-1.3.7-.5 1.3-1 1.7-1.7.4-.6 1.2-.8 1.8-.3.6.4.8 1.2.3 1.8-.1.1-.2.2-.3.3-.7.5-1.2 1.1-1.7 1.7-.5.7-.9 1.4-1.3 2.1-.4.8-.7 1.6-1.1 2.4-.1.2-.2.4-.1.8 0 .2.2.5.3.7l.3.8c.3.6.3.9.1 1-.2.1-.7-.1-1.9-1C45.8 95.4 44 93.6 42.6 91.8zM48.1 56.5c1.1-.9 1.7-1.1 1.9-1 .2.1.1.4-.1 1l-.3.8c-.1.2-.3.6-.3.7-.1.4 0 .6.1.8.3.9.7 1.6 1.1 2.4.4.8.8 1.5 1.3 2.1.5.7 1 1.3 1.7 1.7.6.4.8 1.2.3 1.8s-1.2.8-1.8.3c-.1-.1-.2-.2-.3-.3-.5-.7-1.1-1.2-1.7-1.7-.7-.5-1.4-.9-2.1-1.3-.8-.4-1.6-.7-2.4-1.1-.2-.1-.4-.2-.8-.1-.2 0-.5.2-.7.3L43 63.3c-.6.3-.9.3-1 .1-.1-.2.1-.7 1-1.9C44.4 59.6 46.2 57.9 48.1 56.5z"/><circle cx="63" cy="12" r="8" fill="none" stroke="#bde5ec" stroke-miterlimit="10" stroke-width="8"/><circle cx="78" cy="43.7" r="6" fill="#ecc6c3"/><circle cx="44.9" cy="46.8" r="3.2" fill="#ecc6c3"/><circle cx="83" cy="107" r="3" fill="#ecc6c3"/><circle cx="39" cy="104" r="3" fill="#ecc6c3"/><polygon fill="#2652e4" points="121 128 7 128 11 115 117 115"/><rect width="128" height="128" fill="none"/></svg>