<svg xmlns="http://www.w3.org/2000/svg" id="Layer_1" enable-background="new 0 0 128 128" viewBox="0 0 128 128"><path fill="#2652e4" d="M106,128H38V41h80v75C118,122.6,112.6,128,106,128z"/><path fill="#bde5ec" d="M106,128H26c-6.6,0-12-5.4-12-12V15h80v101C94,122.6,99.4,128,106,128L106,128z"/><circle cx="41.2" cy="66.6" r="10" fill="#e44450"/><circle cx="38.6" cy="63.5" r="1.6" fill="#fff"/><circle cx="36.9" cy="70.1" r="1.6" fill="#fff"/><polygon fill="#e44450" points="42.8 55 42.2 58.6 42.1 59.7 40.3 59.7 40.1 58.6 39.5 55 39.3 53.4 43.1 53.4"/><ellipse cx="41.2" cy="53.5" fill="#e44450" rx="2.7" ry="1"/><polygon fill="#e44450" points="39.5 78.5 40.1 74.9 40.3 73.8 42.1 73.8 42.2 74.9 42.8 78.5 43.1 80.1 39.3 80.1"/><ellipse cx="41.2" cy="80" fill="#e44450" rx="2.7" ry="1"/><polygon fill="#e44450" points="52.9 68.4 49.3 67.8 48.3 67.7 48.3 65.8 49.3 65.7 52.9 65.1 54.5 64.8 54.5 68.7"/><ellipse cx="54.4" cy="66.8" fill="#e44450" rx="1" ry="2.7"/><polygon fill="#e44450" points="29.4 65.1 33 65.7 34.1 65.8 34.1 67.7 33 67.8 29.4 68.4 27.8 68.7 27.8 64.8"/><ellipse cx="28" cy="66.8" fill="#e44450" rx="1" ry="2.7"/><polygon fill="#e44450" points="50.6 59.6 47.7 61.7 46.8 62.4 45.5 61.1 46.2 60.2 48.3 57.3 49.3 55.9 52 58.6"/><ellipse cx="50.5" cy="57.4" fill="#e44450" rx="1" ry="2.7" transform="rotate(-45.001 50.497 57.415)"/><polygon fill="#e44450" points="31.7 73.9 34.6 71.8 35.5 71.1 36.8 72.4 36.1 73.3 34 76.2 33 77.6 30.4 74.9"/><ellipse cx="31.8" cy="76.1" fill="#e44450" rx="1" ry="2.7" transform="rotate(-45.001 31.82 76.091)"/><polygon fill="#e44450" points="48.3 76.2 46.2 73.3 45.5 72.4 46.8 71.1 47.7 71.8 50.6 73.9 52 74.9 49.3 77.6"/><ellipse cx="50.5" cy="76.1" fill="#e44450" rx="2.7" ry="1" transform="rotate(-45.001 50.497 76.091)"/><polygon fill="#e44450" points="34 57.3 36.1 60.2 36.8 61.1 35.5 62.4 34.6 61.7 31.7 59.6 30.4 58.6 33 55.9"/><ellipse cx="31.8" cy="57.4" fill="#e44450" rx="2.7" ry="1" transform="rotate(-45.001 31.82 57.414)"/><circle cx="45.1" cy="66.8" r="3.3" fill="#ecc6c3"/><rect width="52" height="16" x="27" y="29" fill="#fff"/><line x1="62" x2="79" y1="56" y2="56" fill="none" stroke="#fff" stroke-miterlimit="10" stroke-width="4"/><line x1="62" x2="79" y1="67" y2="67" fill="none" stroke="#fff" stroke-miterlimit="10" stroke-width="4"/><line x1="62" x2="79" y1="78" y2="78" fill="none" stroke="#fff" stroke-miterlimit="10" stroke-width="4"/><line x1="27" x2="79" y1="88" y2="88" fill="none" stroke="#fff" stroke-miterlimit="10" stroke-width="4"/><line x1="27" x2="79" y1="98" y2="98" fill="none" stroke="#fff" stroke-miterlimit="10" stroke-width="4"/><line x1="27" x2="44" y1="108" y2="108" fill="none" stroke="#fff" stroke-miterlimit="10" stroke-width="4"/><rect width="128" height="128" fill="none"/></svg>